<svg height="512pt" viewBox="-51 0 512 512.0005" width="512pt" xmlns="http://www.w3.org/2000/svg"><path d="m401.066406 76.800781-68.265625-68.265625v136.53125h-256v-136.53125h-68.265625v204.796875h392.53125zm0 0" fill="#bcbec0"/><path d="m401.066406 213.332031h-392.53125v290.136719h392.53125zm-34.132812 256h-324.265625v-221.863281h324.265625zm0 0" fill="#bcbec0"/><path d="m42.667969 247.46875h324.265625v221.863281h-324.265625zm0 0" fill="#e6e7e8"/><path d="m332.800781 145.066406v-136.53125h-34.132812v102.398438h-34.132813v-102.398438h-187.734375v136.53125zm0 0" fill="#e6e7e8"/><path d="m264.535156 8.535156h34.132813v102.398438h-34.132813zm0 0" fill="#bcbec0"/><g fill="#231f20"><path d="m42.667969 477.867188h324.265625c4.714844 0 8.535156-3.820313 8.535156-8.535157v-221.863281c0-4.714844-3.820312-8.535156-8.535156-8.535156h-324.265625c-4.714844 0-8.535157 3.820312-8.535157 8.535156v221.863281c0 4.714844 3.820313 8.535157 8.535157 8.535157zm8.53125-221.867188h307.199219v204.800781h-307.199219zm0 0"/><path d="m408.945312 73.539062c-.429687-1.035156-1.054687-1.976562-1.84375-2.773437l-68.269531-68.265625c-.792969-.789062-1.734375-1.417969-2.773437-1.84375-1.03125-.429688-2.140625-.65234375-3.257813-.65625h-324.265625c-4.714844 0-8.535156 3.820312-8.535156 8.535156v494.933594c0 4.710938 3.820312 8.53125 8.535156 8.53125h392.53125c4.714844 0 8.535156-3.820312 8.535156-8.53125v-426.667969c-.007812-1.121093-.230468-2.226562-.65625-3.261719zm-118.8125-56.472656v85.332032h-17.066406v-85.332032zm-34.132812 0v93.867188c0 4.714844 3.820312 8.535156 8.535156 8.535156h34.132813c4.710937 0 8.53125-3.820312 8.53125-8.535156v-93.867188h17.066406v119.46875h-238.933594v-119.46875zm-238.933594 0h51.199219v128c0 4.714844 3.820313 8.535156 8.535156 8.535156h256c4.710938 0 8.535157-3.820312 8.535157-8.535156v-115.933594l51.199218 51.199219v124.46875h-375.46875zm375.46875 477.867188h-375.46875v-273.066406h375.46875zm0 0"/></g></svg>